<svg width="646" height="474" viewBox="0 0 646 474" fill="none" xmlns="http://www.w3.org/2000/svg">
<path d="M35.2 374C32.5333 374 30.1333 373.067 28 371.2C25.8667 369.067 24.8 366.533 24.8 363.6V104.4C24.8 101.467 25.8667 99.0666 28 97.2C30.1333 95.0666 32.5333 94 35.2 94H88.4C93.2 94 96.6667 95.2 98.8 97.6C100.933 99.7333 102.4 101.333 103.2 102.4L185.6 234.8V104.4C185.6 101.467 186.667 99.0666 188.8 97.2C190.933 95.0666 193.333 94 196 94H256.4C259.333 94 261.733 95.0666 263.6 97.2C265.733 99.0666 266.8 101.467 266.8 104.4V363.6C266.8 366.533 265.733 369.067 263.6 371.2C261.733 373.067 259.333 374 256.4 374H203.6C198.533 374 194.933 372.933 192.8 370.8C190.667 368.4 189.2 366.667 188.4 365.6L106 240.8V363.6C106 366.533 104.933 369.067 102.8 371.2C100.933 373.067 98.5333 374 95.6 374H35.2Z" fill="black"/>
<path d="M401.6 378C376.267 378 354.133 374.133 335.2 366.4C316.267 358.4 301.333 346.4 290.4 330.4C279.733 314.4 273.867 294.133 272.8 269.6C272.533 258.667 272.4 246.933 272.4 234.4C272.4 221.867 272.533 209.867 272.8 198.4C273.867 174.4 279.867 154.4 290.8 138.4C302 122.133 317.067 110 336 102C355.2 94 377.067 90 401.6 90C419.2 90 435.6 92.1333 450.8 96.4C466.267 100.4 480 106.667 492 115.2C504 123.467 513.467 133.867 520.4 146.4C527.333 158.667 530.933 173.067 531.2 189.6C531.2 192 530.267 194 528.4 195.6C526.8 197.2 524.8 198 522.4 198H454.8C450.8 198 447.867 197.2 446 195.6C444.133 194 442.533 191.2 441.2 187.2C437.733 175.733 432.667 168 426 164C419.333 160 411.2 158 401.6 158C389.867 158 380.533 161.2 373.6 167.6C366.667 173.733 362.933 184.667 362.4 200.4C361.6 222.267 361.6 244.667 362.4 267.6C362.933 283.333 366.667 294.4 373.6 300.8C380.533 306.933 389.867 310 401.6 310C411.2 310 419.333 307.867 426 303.6C432.933 299.333 438 291.733 441.2 280.8C442.267 276.533 443.733 273.733 445.6 272.4C447.733 270.8 450.8 270 454.8 270H522.4C524.8 270 526.8 270.8 528.4 272.4C530.267 274 531.2 276 531.2 278.4C530.933 294.933 527.333 309.467 520.4 322C513.467 334.267 504 344.667 492 353.2C480 361.467 466.267 367.733 450.8 372C435.6 376 419.2 378 401.6 378Z" fill="black"/>
<path fill-rule="evenodd" clip-rule="evenodd" d="M570.775 1.97788C577.399 0.50592 585.434 0 595 0C604.566 0 612.601 0.50592 619.224 1.97788C625.906 3.46275 631.459 5.9976 635.731 10.2693C640.002 14.5409 642.537 20.0941 644.022 26.7754C645.494 33.3987 646 41.4339 646 51C646 60.5661 645.494 68.6011 644.022 75.2245C642.537 81.906 640.002 87.4589 635.731 91.7306C631.459 96.0024 625.906 98.5371 619.224 100.022C612.601 101.494 604.566 102 595 102C585.434 102 577.399 101.494 570.775 100.022C564.094 98.5371 558.541 96.0024 554.269 91.7306C549.998 87.4589 547.463 81.906 545.978 75.2245C544.506 68.6011 544 60.5661 544 51C544 41.4339 544.506 33.3987 545.978 26.7754C547.463 20.0941 549.998 14.5409 554.269 10.2693C558.541 5.9976 564.094 3.46275 570.775 1.97788ZM587.384 23.7285C590.001 16.6608 599.998 16.6608 602.616 23.7285L605.817 32.3711C606.558 34.3718 608.466 35.6997 610.599 35.6997H618.087C625.403 35.6997 629.067 44.5449 623.894 49.7184L616.066 57.5458C614.86 58.752 614.337 60.4804 614.671 62.1527L616.554 71.5627C617.921 78.4008 610.47 83.5747 604.541 79.9042L597.684 75.6595C596.039 74.6416 593.96 74.6416 592.315 75.6595L585.459 79.9042C579.53 83.5747 572.079 78.4008 573.446 71.5627L575.328 62.1527C575.663 60.4804 575.139 58.752 573.933 57.5458L565.893 49.5062C560.799 44.4113 564.407 35.6997 571.612 35.6997H579.4C581.534 35.6997 583.442 34.3718 584.183 32.3711L587.384 23.7285Z" fill="black"/>
</svg>
