<svg width="1080" height="1080" viewBox="0 0 1080 1080" fill="none" xmlns="http://www.w3.org/2000/svg">
<rect x="113" y="172" width="853" height="817" rx="104" fill="#3C3C3C" fill-opacity="0.69"/>
<rect x="150" y="263" width="779" height="746" rx="104" fill="#3C3C3C" fill-opacity="0.33"/>
<rect x="165" y="318" width="736" height="705" rx="104" fill="#3C3C3C" fill-opacity="0.1"/>
<rect x="94" y="113" width="891" height="853" rx="104" fill="#3C3C3C"/>
<path fill-rule="evenodd" clip-rule="evenodd" d="M813.763 200.346C821.62 198.6 831.152 198 842.5 198C853.848 198 863.38 198.6 871.237 200.346C879.163 202.108 885.75 205.115 890.818 210.182C895.885 215.25 898.892 221.837 900.654 229.763C902.4 237.62 903 247.152 903 258.5C903 269.848 902.4 279.38 900.654 287.237C898.892 295.163 895.885 301.75 890.818 306.818C885.75 311.885 879.163 314.892 871.237 316.654C863.38 318.4 853.848 319 842.5 319C831.152 319 821.62 318.4 813.763 316.654C805.837 314.892 799.25 311.885 794.182 306.818C789.115 301.75 786.108 295.163 784.346 287.237C782.6 279.38 782 269.848 782 258.5C782 247.152 782.6 237.62 784.346 229.763C786.108 221.837 789.115 215.25 794.182 210.182C799.25 205.115 805.837 202.108 813.763 200.346ZM833.465 226.148C836.57 217.764 848.429 217.764 851.534 226.148L855.331 236.401C856.211 238.774 858.474 240.35 861.005 240.35H869.888C878.566 240.35 882.913 250.843 876.776 256.98L867.49 266.265C866.06 267.696 865.439 269.746 865.835 271.73L868.069 282.893C869.691 291.005 860.851 297.143 853.818 292.788L845.684 287.753C843.733 286.545 841.266 286.545 839.315 287.753L831.182 292.788C824.148 297.143 815.309 291.005 816.931 282.893L819.164 271.73C819.561 269.746 818.94 267.696 817.509 266.265L807.972 256.728C801.928 250.684 806.208 240.35 814.756 240.35H823.995C826.526 240.35 828.789 238.774 829.668 236.401L833.465 226.148Z" fill="#F3F3F3"/>
<path d="M210 540.1C209.867 540.1 209.667 540.067 209.4 540C209.133 539.933 208.867 539.8 208.6 539.6L170.6 513.9C169.667 513.233 168.933 512.6 168.4 512C167.933 511.4 167.7 510.6 167.7 509.6V506C167.7 504.933 167.933 504.1 168.4 503.5C168.933 502.9 169.667 502.3 170.6 501.7L208.6 475.9C208.867 475.767 209.133 475.667 209.4 475.6C209.667 475.533 209.867 475.5 210 475.5C210.6 475.5 211.1 475.7 211.5 476.1C211.9 476.433 212.1 476.9 212.1 477.5V491C212.1 492.2 211.767 493.1 211.1 493.7C210.433 494.3 209.767 494.8 209.1 495.2L189.5 507.8L209.1 520.5C209.767 520.833 210.433 521.3 211.1 521.9C211.767 522.433 212.1 523.3 212.1 524.5V538C212.1 538.667 211.9 539.2 211.5 539.6C211.1 539.933 210.6 540.1 210 540.1ZM226.534 540C225.868 540 225.268 539.767 224.734 539.3C224.201 538.767 223.934 538.133 223.934 537.4V472.6C223.934 471.867 224.201 471.267 224.734 470.8C225.268 470.267 225.868 470 226.534 470H239.834C241.034 470 241.901 470.3 242.434 470.9C242.968 471.433 243.334 471.833 243.534 472.1L264.134 505.2V472.6C264.134 471.867 264.401 471.267 264.934 470.8C265.468 470.267 266.068 470 266.734 470H281.834C282.568 470 283.168 470.267 283.634 470.8C284.168 471.267 284.434 471.867 284.434 472.6V537.4C284.434 538.133 284.168 538.767 283.634 539.3C283.168 539.767 282.568 540 281.834 540H268.634C267.368 540 266.468 539.733 265.934 539.2C265.401 538.6 265.034 538.167 264.834 537.9L244.234 506.7V537.4C244.234 538.133 243.968 538.767 243.434 539.3C242.968 539.767 242.368 540 241.634 540H226.534ZM322.081 541C316.215 541 311.248 540.133 307.181 538.4C303.181 536.667 300.115 534.133 297.981 530.8C295.848 527.4 294.648 523.333 294.381 518.6C294.315 517.2 294.281 515.667 294.281 514C294.281 512.333 294.315 510.8 294.381 509.4C294.648 504.6 295.915 500.533 298.181 497.2C300.448 493.867 303.581 491.333 307.581 489.6C311.648 487.867 316.481 487 322.081 487C327.681 487 332.481 487.867 336.481 489.6C340.548 491.333 343.715 493.867 345.981 497.2C348.248 500.533 349.515 504.6 349.781 509.4C349.915 510.8 349.981 512.333 349.981 514C349.981 515.667 349.915 517.2 349.781 518.6C349.515 523.333 348.315 527.4 346.181 530.8C344.048 534.133 340.948 536.667 336.881 538.4C332.881 540.133 327.948 541 322.081 541ZM322.081 526.9C324.548 526.9 326.248 526.167 327.181 524.7C328.115 523.233 328.648 521.033 328.781 518.1C328.848 517.1 328.881 515.733 328.881 514C328.881 512.267 328.848 510.9 328.781 509.9C328.648 507.033 328.115 504.867 327.181 503.4C326.248 501.867 324.548 501.1 322.081 501.1C319.681 501.1 318.015 501.867 317.081 503.4C316.148 504.867 315.581 507.033 315.381 509.9C315.315 510.9 315.281 512.267 315.281 514C315.281 515.733 315.315 517.1 315.381 518.1C315.581 521.033 316.148 523.233 317.081 524.7C318.015 526.167 319.681 526.9 322.081 526.9ZM375.426 540C374.359 540 373.592 539.733 373.126 539.2C372.726 538.667 372.359 538.1 372.026 537.5L352.926 491.1C352.859 490.833 352.826 490.567 352.826 490.3C352.826 489.7 353.059 489.167 353.526 488.7C353.992 488.233 354.526 488 355.126 488H369.326C370.259 488 370.959 488.267 371.426 488.8C371.892 489.267 372.226 489.733 372.426 490.2L382.026 517.3L391.726 490.2C391.926 489.733 392.259 489.267 392.726 488.8C393.192 488.267 393.892 488 394.826 488H408.926C409.592 488 410.126 488.233 410.526 488.7C410.992 489.167 411.226 489.7 411.226 490.3C411.226 490.567 411.192 490.833 411.126 491.1L392.126 537.5C391.859 538.1 391.459 538.667 390.926 539.2C390.459 539.733 389.726 540 388.726 540H375.426ZM431.613 541C427.946 541 424.646 540.3 421.713 538.9C418.846 537.5 416.579 535.633 414.913 533.3C413.313 530.9 412.513 528.233 412.513 525.3C412.513 520.5 414.446 516.733 418.313 514C422.246 511.2 427.479 509.267 434.013 508.2L445.513 506.4V505.7C445.513 503.633 445.179 502.1 444.513 501.1C443.913 500.033 442.613 499.5 440.613 499.5C439.213 499.5 438.079 499.767 437.213 500.3C436.346 500.833 435.546 501.6 434.813 502.6C434.146 503.333 433.279 503.7 432.213 503.7H418.113C417.379 503.7 416.813 503.5 416.413 503.1C416.013 502.7 415.846 502.167 415.913 501.5C415.979 500.3 416.479 498.9 417.413 497.3C418.346 495.633 419.779 494.033 421.713 492.5C423.713 490.9 426.279 489.6 429.413 488.6C432.546 487.533 436.313 487 440.713 487C445.179 487 449.013 487.5 452.213 488.5C455.413 489.5 458.046 490.9 460.113 492.7C462.179 494.5 463.713 496.7 464.713 499.3C465.713 501.833 466.213 504.667 466.213 507.8V537.4C466.213 538.133 465.946 538.767 465.412 539.3C464.946 539.767 464.346 540 463.613 540H449.013C448.346 540 447.746 539.767 447.213 539.3C446.679 538.767 446.413 538.133 446.413 537.4V534.2C445.546 535.533 444.379 536.7 442.913 537.7C441.513 538.7 439.846 539.5 437.913 540.1C436.046 540.7 433.946 541 431.613 541ZM437.413 527.9C439.079 527.9 440.513 527.567 441.713 526.9C442.979 526.167 443.979 525.067 444.713 523.6C445.446 522.133 445.813 520.3 445.813 518.1V517.4L438.613 518.8C436.146 519.267 434.413 519.967 433.413 520.9C432.413 521.767 431.913 522.733 431.913 523.8C431.913 524.6 432.146 525.3 432.613 525.9C433.079 526.5 433.713 527 434.513 527.4C435.379 527.733 436.346 527.9 437.413 527.9ZM495.279 548.4C494.679 548.4 494.146 548.167 493.679 547.7C493.279 547.3 493.079 546.8 493.079 546.2C493.079 545.933 493.146 545.633 493.279 545.3L526.979 464.1C527.246 463.5 527.679 462.9 528.279 462.3C528.946 461.7 529.846 461.4 530.979 461.4H542.179C542.779 461.4 543.279 461.633 543.679 462.1C544.146 462.5 544.379 463 544.379 463.6C544.379 463.867 544.279 464.167 544.079 464.5L510.179 545.7C509.979 546.3 509.579 546.9 508.979 547.5C508.379 548.1 507.446 548.4 506.179 548.4H495.279ZM554.243 540.2C553.643 540.2 553.143 540 552.743 539.6C552.343 539.2 552.143 538.7 552.143 538.1V524.6C552.143 523.4 552.476 522.533 553.143 522C553.876 521.4 554.543 520.9 555.143 520.5L574.843 507.8L555.143 495.2C554.543 494.867 553.876 494.4 553.143 493.8C552.476 493.133 552.143 492.233 552.143 491.1V477.6C552.143 477 552.343 476.5 552.743 476.1C553.143 475.7 553.643 475.5 554.243 475.5C554.443 475.5 554.643 475.567 554.843 475.7C555.11 475.767 555.376 475.867 555.643 476L593.743 501.8C594.676 502.4 595.376 503 595.843 503.6C596.376 504.2 596.643 505 596.643 506V509.7C596.643 510.7 596.376 511.5 595.843 512.1C595.376 512.7 594.676 513.3 593.743 513.9L555.643 539.7C555.376 539.833 555.11 539.933 554.843 540C554.643 540.133 554.443 540.2 554.243 540.2Z" fill="white"/>
<path d="M210 637.1C209.867 637.1 209.667 637.067 209.4 637C209.133 636.933 208.867 636.8 208.6 636.6L170.6 610.9C169.667 610.233 168.933 609.6 168.4 609C167.933 608.4 167.7 607.6 167.7 606.6V603C167.7 601.933 167.933 601.1 168.4 600.5C168.933 599.9 169.667 599.3 170.6 598.7L208.6 572.9C208.867 572.767 209.133 572.667 209.4 572.6C209.667 572.533 209.867 572.5 210 572.5C210.6 572.5 211.1 572.7 211.5 573.1C211.9 573.433 212.1 573.9 212.1 574.5V588C212.1 589.2 211.767 590.1 211.1 590.7C210.433 591.3 209.767 591.8 209.1 592.2L189.5 604.8L209.1 617.5C209.767 617.833 210.433 618.3 211.1 618.9C211.767 619.433 212.1 620.3 212.1 621.5V635C212.1 635.667 211.9 636.2 211.5 636.6C211.1 636.933 210.6 637.1 210 637.1ZM254.134 638C247.801 638 242.268 637.033 237.534 635.1C232.801 633.1 229.068 630.1 226.334 626.1C223.668 622.1 222.201 617.033 221.934 610.9C221.868 608.167 221.834 605.233 221.834 602.1C221.834 598.967 221.868 595.967 221.934 593.1C222.201 587.1 223.701 582.1 226.434 578.1C229.234 574.033 233.001 571 237.734 569C242.534 567 248.001 566 254.134 566C258.534 566 262.634 566.533 266.434 567.6C270.301 568.6 273.734 570.167 276.734 572.3C279.734 574.367 282.101 576.967 283.834 580.1C285.568 583.167 286.468 586.767 286.534 590.9C286.534 591.5 286.301 592 285.834 592.4C285.434 592.8 284.934 593 284.334 593H267.434C266.434 593 265.701 592.8 265.234 592.4C264.768 592 264.368 591.3 264.034 590.3C263.168 587.433 261.901 585.5 260.234 584.5C258.568 583.5 256.534 583 254.134 583C251.201 583 248.868 583.8 247.134 585.4C245.401 586.933 244.468 589.667 244.334 593.6C244.134 599.067 244.134 604.667 244.334 610.4C244.468 614.333 245.401 617.1 247.134 618.7C248.868 620.233 251.201 621 254.134 621C256.534 621 258.568 620.467 260.234 619.4C261.968 618.333 263.234 616.433 264.034 613.7C264.301 612.633 264.668 611.933 265.134 611.6C265.668 611.2 266.434 611 267.434 611H284.334C284.934 611 285.434 611.2 285.834 611.6C286.301 612 286.534 612.5 286.534 613.1C286.468 617.233 285.568 620.867 283.834 624C282.101 627.067 279.734 629.667 276.734 631.8C273.734 633.867 270.301 635.433 266.434 636.5C262.634 637.5 258.534 638 254.134 638ZM320.812 638C314.945 638 309.978 637.133 305.912 635.4C301.912 633.667 298.845 631.133 296.712 627.8C294.578 624.4 293.378 620.333 293.112 615.6C293.045 614.2 293.012 612.667 293.012 611C293.012 609.333 293.045 607.8 293.112 606.4C293.378 601.6 294.645 597.533 296.912 594.2C299.178 590.867 302.312 588.333 306.312 586.6C310.378 584.867 315.212 584 320.812 584C326.412 584 331.212 584.867 335.212 586.6C339.278 588.333 342.445 590.867 344.712 594.2C346.978 597.533 348.245 601.6 348.512 606.4C348.645 607.8 348.712 609.333 348.712 611C348.712 612.667 348.645 614.2 348.512 615.6C348.245 620.333 347.045 624.4 344.912 627.8C342.778 631.133 339.678 633.667 335.612 635.4C331.612 637.133 326.678 638 320.812 638ZM320.812 623.9C323.278 623.9 324.978 623.167 325.912 621.7C326.845 620.233 327.378 618.033 327.512 615.1C327.578 614.1 327.612 612.733 327.612 611C327.612 609.267 327.578 607.9 327.512 606.9C327.378 604.033 326.845 601.867 325.912 600.4C324.978 598.867 323.278 598.1 320.812 598.1C318.412 598.1 316.745 598.867 315.812 600.4C314.878 601.867 314.312 604.033 314.112 606.9C314.045 607.9 314.012 609.267 314.012 611C314.012 612.733 314.045 614.1 314.112 615.1C314.312 618.033 314.878 620.233 315.812 621.7C316.745 623.167 318.412 623.9 320.812 623.9ZM359.909 637C359.176 637 358.543 636.767 358.009 636.3C357.543 635.767 357.309 635.133 357.309 634.4V587.6C357.309 586.867 357.543 586.267 358.009 585.8C358.543 585.267 359.176 585 359.909 585H374.409C375.143 585 375.743 585.267 376.209 585.8C376.743 586.267 377.009 586.867 377.009 587.6V591.2C378.743 589.2 381.043 587.5 383.909 586.1C386.776 584.7 390.043 584 393.709 584C397.309 584 400.576 584.833 403.509 586.5C406.443 588.167 408.809 590.667 410.609 594C412.409 597.333 413.309 601.533 413.309 606.6V634.4C413.309 635.133 413.043 635.767 412.509 636.3C411.976 636.767 411.343 637 410.609 637H394.809C394.076 637 393.443 636.767 392.909 636.3C392.443 635.767 392.209 635.133 392.209 634.4V607.3C392.209 604.833 391.609 602.933 390.409 601.6C389.209 600.267 387.509 599.6 385.309 599.6C383.109 599.6 381.376 600.267 380.109 601.6C378.843 602.933 378.209 604.833 378.209 607.3V634.4C378.209 635.133 377.943 635.767 377.409 636.3C376.943 636.767 376.343 637 375.609 637H359.909ZM446.03 638C441.496 638 437.63 637.533 434.43 636.6C431.23 635.6 428.596 634.367 426.53 632.9C424.53 631.433 423.063 629.933 422.13 628.4C421.196 626.8 420.696 625.4 420.63 624.2C420.563 623.467 420.763 622.867 421.23 622.4C421.763 621.867 422.33 621.6 422.93 621.6H437.43C437.496 621.6 437.596 621.633 437.73 621.7C437.863 621.7 437.996 621.767 438.13 621.9C438.996 622.167 439.796 622.6 440.53 623.2C441.33 623.8 442.196 624.333 443.13 624.8C444.13 625.267 445.296 625.5 446.63 625.5C447.763 625.5 448.763 625.267 449.63 624.8C450.563 624.267 451.03 623.533 451.03 622.6C451.03 621.8 450.763 621.1 450.23 620.5C449.763 619.9 448.73 619.333 447.13 618.8C445.53 618.2 442.963 617.567 439.43 616.9C436.163 616.233 433.163 615.267 430.43 614C427.763 612.667 425.63 610.9 424.03 608.7C422.496 606.5 421.73 603.8 421.73 600.6C421.73 597.867 422.63 595.233 424.43 592.7C426.23 590.167 428.896 588.1 432.43 586.5C436.03 584.833 440.43 584 445.63 584C449.563 584 453.03 584.467 456.03 585.4C459.096 586.333 461.663 587.5 463.73 588.9C465.863 590.3 467.463 591.8 468.53 593.4C469.663 595 470.263 596.433 470.33 597.7C470.396 598.433 470.196 599.067 469.73 599.6C469.263 600.067 468.73 600.3 468.13 600.3H455.03C454.83 600.3 454.596 600.3 454.33 600.3C454.13 600.233 453.963 600.133 453.83 600C452.896 599.8 452.03 599.433 451.23 598.9C450.496 598.3 449.696 597.767 448.83 597.3C447.963 596.767 446.863 596.5 445.53 596.5C444.396 596.5 443.463 596.767 442.73 597.3C442.063 597.833 441.73 598.533 441.73 599.4C441.73 600.133 441.963 600.8 442.43 601.4C442.896 602 443.963 602.567 445.63 603.1C447.296 603.633 449.93 604.2 453.53 604.8C458.196 605.533 461.93 606.767 464.73 608.5C467.53 610.167 469.53 612.133 470.73 614.4C471.93 616.667 472.53 618.933 472.53 621.2C472.53 624.6 471.496 627.567 469.43 630.1C467.43 632.633 464.43 634.6 460.43 636C456.496 637.333 451.696 638 446.03 638ZM499.356 638C495.756 638 492.456 637.167 489.456 635.5C486.523 633.833 484.19 631.333 482.456 628C480.723 624.667 479.856 620.467 479.856 615.4V587.6C479.856 586.867 480.09 586.267 480.556 585.8C481.09 585.267 481.723 585 482.456 585H498.256C498.99 585 499.59 585.267 500.056 585.8C500.59 586.267 500.856 586.867 500.856 587.6V614.7C500.856 619.833 503.156 622.4 507.756 622.4C509.956 622.4 511.656 621.733 512.856 620.4C514.123 619.067 514.756 617.167 514.756 614.7V587.6C514.756 586.867 514.99 586.267 515.456 585.8C515.99 585.267 516.623 585 517.356 585H533.156C533.823 585 534.423 585.267 534.956 585.8C535.49 586.267 535.756 586.867 535.756 587.6V634.4C535.756 635.133 535.49 635.767 534.956 636.3C534.423 636.767 533.823 637 533.156 637H518.556C517.823 637 517.19 636.767 516.656 636.3C516.19 635.767 515.956 635.133 515.956 634.4V630.8C514.29 633.267 512.023 635.1 509.156 636.3C506.29 637.433 503.023 638 499.356 638ZM548.679 637C547.946 637 547.312 636.767 546.779 636.3C546.312 635.767 546.079 635.133 546.079 634.4V568.6C546.079 567.867 546.312 567.267 546.779 566.8C547.312 566.267 547.946 566 548.679 566H563.579C564.246 566 564.846 566.267 565.379 566.8C565.912 567.267 566.179 567.867 566.179 568.6V634.4C566.179 635.133 565.912 635.767 565.379 636.3C564.846 636.767 564.246 637 563.579 637H548.679ZM605.948 637C601.414 637 597.414 636.333 593.948 635C590.548 633.667 587.881 631.5 585.948 628.5C584.081 625.433 583.148 621.4 583.148 616.4V600.3H575.248C574.514 600.3 573.881 600.067 573.348 599.6C572.881 599.067 572.648 598.433 572.648 597.7V587.6C572.648 586.867 572.881 586.267 573.348 585.8C573.881 585.267 574.514 585 575.248 585H583.148V568.6C583.148 567.867 583.381 567.267 583.848 566.8C584.381 566.267 585.014 566 585.748 566H600.248C600.981 566 601.581 566.267 602.048 566.8C602.581 567.267 602.848 567.867 602.848 568.6V585H615.448C616.181 585 616.781 585.267 617.248 585.8C617.781 586.267 618.048 586.867 618.048 587.6V597.7C618.048 598.433 617.781 599.067 617.248 599.6C616.781 600.067 616.181 600.3 615.448 600.3H602.848V614.7C602.848 616.633 603.248 618.167 604.048 619.3C604.848 620.367 606.114 620.9 607.848 620.9H616.248C616.981 620.9 617.581 621.167 618.048 621.7C618.581 622.167 618.848 622.767 618.848 623.5V634.4C618.848 635.133 618.581 635.767 618.048 636.3C617.581 636.767 616.981 637 616.248 637H605.948ZM629.148 637C628.414 637 627.781 636.767 627.248 636.3C626.781 635.767 626.548 635.133 626.548 634.4V587.6C626.548 586.867 626.781 586.267 627.248 585.8C627.781 585.267 628.414 585 629.148 585H643.948C644.681 585 645.314 585.267 645.848 585.8C646.381 586.267 646.648 586.867 646.648 587.6V634.4C646.648 635.133 646.381 635.767 645.848 636.3C645.314 636.767 644.681 637 643.948 637H629.148ZM629.348 578.5C628.614 578.5 627.981 578.267 627.448 577.8C626.981 577.267 626.748 576.633 626.748 575.9V565.4C626.748 564.667 626.981 564.033 627.448 563.5C627.981 562.967 628.614 562.7 629.348 562.7H643.748C644.481 562.7 645.114 562.967 645.648 563.5C646.181 564.033 646.448 564.667 646.448 565.4V575.9C646.448 576.633 646.181 577.267 645.648 577.8C645.114 578.267 644.481 578.5 643.748 578.5H629.348ZM659.519 637C658.785 637 658.152 636.767 657.619 636.3C657.152 635.767 656.919 635.133 656.919 634.4V587.6C656.919 586.867 657.152 586.267 657.619 585.8C658.152 585.267 658.785 585 659.519 585H674.019C674.752 585 675.352 585.267 675.819 585.8C676.352 586.267 676.619 586.867 676.619 587.6V591.2C678.352 589.2 680.652 587.5 683.519 586.1C686.385 584.7 689.652 584 693.319 584C696.919 584 700.185 584.833 703.119 586.5C706.052 588.167 708.419 590.667 710.219 594C712.019 597.333 712.919 601.533 712.919 606.6V634.4C712.919 635.133 712.652 635.767 712.119 636.3C711.585 636.767 710.952 637 710.219 637H694.419C693.685 637 693.052 636.767 692.519 636.3C692.052 635.767 691.819 635.133 691.819 634.4V607.3C691.819 604.833 691.219 602.933 690.019 601.6C688.819 600.267 687.119 599.6 684.919 599.6C682.719 599.6 680.985 600.267 679.719 601.6C678.452 602.933 677.819 604.833 677.819 607.3V634.4C677.819 635.133 677.552 635.767 677.019 636.3C676.552 636.767 675.952 637 675.219 637H659.519ZM750.139 659C744.739 659 740.239 658.3 736.639 656.9C733.106 655.567 730.272 653.9 728.139 651.9C726.006 649.967 724.472 648.033 723.539 646.1C722.672 644.233 722.206 642.767 722.139 641.7C722.072 640.967 722.306 640.333 722.839 639.8C723.372 639.333 724.006 639.1 724.739 639.1H740.839C741.506 639.1 742.039 639.267 742.439 639.6C742.906 639.933 743.272 640.433 743.539 641.1C743.872 641.7 744.239 642.3 744.639 642.9C745.106 643.5 745.739 643.967 746.539 644.3C747.339 644.633 748.372 644.8 749.639 644.8C751.172 644.8 752.406 644.533 753.339 644C754.339 643.467 755.072 642.633 755.539 641.5C756.072 640.367 756.339 638.867 756.339 637V630.3C754.739 631.833 752.772 633.067 750.439 634C748.172 634.867 745.472 635.3 742.339 635.3C739.072 635.3 736.139 634.867 733.539 634C731.006 633.067 728.839 631.667 727.039 629.8C725.306 627.933 723.906 625.567 722.839 622.7C721.839 619.833 721.272 616.4 721.139 612.4C721.072 610.667 721.072 608.933 721.139 607.2C721.272 603.467 721.839 600.167 722.839 597.3C723.839 594.367 725.239 591.933 727.039 590C728.839 588.067 731.006 586.6 733.539 585.6C736.139 584.533 739.072 584 742.339 584C745.739 584 748.706 584.667 751.239 586C753.839 587.267 755.939 588.933 757.539 591V587.6C757.539 586.867 757.772 586.267 758.239 585.8C758.772 585.267 759.406 585 760.139 585H774.639C775.372 585 775.972 585.267 776.439 585.8C776.972 586.267 777.239 586.867 777.239 587.6L777.339 635.4C777.339 640.8 776.172 645.233 773.839 648.7C771.572 652.167 768.406 654.733 764.339 656.4C760.272 658.133 755.539 659 750.139 659ZM749.239 620.1C750.839 620.1 752.139 619.767 753.139 619.1C754.139 618.433 754.872 617.567 755.339 616.5C755.872 615.367 756.206 614.1 756.339 612.7C756.406 612.1 756.439 611.133 756.439 609.8C756.439 608.467 756.406 607.533 756.339 607C756.206 605.6 755.872 604.367 755.339 603.3C754.872 602.167 754.139 601.267 753.139 600.6C752.139 599.933 750.839 599.6 749.239 599.6C747.506 599.6 746.139 599.967 745.139 600.7C744.139 601.367 743.406 602.333 742.939 603.6C742.539 604.8 742.272 606.2 742.139 607.8C742.006 609.2 742.006 610.567 742.139 611.9C742.272 613.5 742.539 614.933 742.939 616.2C743.406 617.4 744.139 618.367 745.139 619.1C746.139 619.767 747.506 620.1 749.239 620.1ZM806.9 645.4C806.3 645.4 805.767 645.167 805.3 644.7C804.9 644.3 804.7 643.8 804.7 643.2C804.7 642.933 804.767 642.633 804.9 642.3L838.6 561.1C838.867 560.5 839.3 559.9 839.9 559.3C840.567 558.7 841.467 558.4 842.6 558.4H853.8C854.4 558.4 854.9 558.633 855.3 559.1C855.767 559.5 856 560 856 560.6C856 560.867 855.9 561.167 855.7 561.5L821.8 642.7C821.6 643.3 821.2 643.9 820.6 644.5C820 645.1 819.067 645.4 817.8 645.4H806.9ZM865.864 637.2C865.264 637.2 864.764 637 864.364 636.6C863.964 636.2 863.764 635.7 863.764 635.1V621.6C863.764 620.4 864.097 619.533 864.764 619C865.497 618.4 866.164 617.9 866.764 617.5L886.464 604.8L866.764 592.2C866.164 591.867 865.497 591.4 864.764 590.8C864.097 590.133 863.764 589.233 863.764 588.1V574.6C863.764 574 863.964 573.5 864.364 573.1C864.764 572.7 865.264 572.5 865.864 572.5C866.064 572.5 866.264 572.567 866.464 572.7C866.731 572.767 866.997 572.867 867.264 573L905.364 598.8C906.297 599.4 906.997 600 907.464 600.6C907.997 601.2 908.264 602 908.264 603V606.7C908.264 607.7 907.997 608.5 907.464 609.1C906.997 609.7 906.297 610.3 905.364 610.9L867.264 636.7C866.997 636.833 866.731 636.933 866.464 637C866.264 637.133 866.064 637.2 865.864 637.2Z" fill="white"/>
</svg>
